<?xml version="1.0" encoding="iso-8859-1"?>
<!-- Generator: Adobe Illustrator 17.1.0, SVG Export Plug-In . SVG Version: 6.00 Build 0)  -->
<!DOCTYPE svg PUBLIC "-//W3C//DTD SVG 1.1//EN" "http://www.w3.org/Graphics/SVG/1.1/DTD/svg11.dtd">
<svg version="1.1" id="Ebene_1" xmlns="http://www.w3.org/2000/svg" xmlns:xlink="http://www.w3.org/1999/xlink" x="0px" y="0px"
	 viewBox="0 0 200 36" enable-background="new 0 0 200 36" xml:space="preserve">
<path fill="#002D73" d="M2.195,19.547L0,21.741V33.81l2.195,2.193h12.064l2.195-2.193V21.741l-2.195-2.194H2.195z M14.259,0H2.195
	L0,2.196V14.26l2.195,2.196h12.064l2.195-2.196V2.196L14.259,0z"/>
<path fill="#77777A" d="M21.742,19.547l-2.195,2.194V33.81l2.195,2.193h12.064L36,33.81V21.741l-2.194-2.194H21.742z M33.806,0
	H21.742l-2.195,2.196V14.26l2.195,2.196h12.064L36,14.26V2.196L33.806,0z"/>
<path fill="#002D73" d="M60.102,13.712c0,2.151-1.087,2.589-3.7,2.589h-3.954c-2.914,0-3.561-0.555-3.561-3.191v-1.318h-2.128v1.85
	c0,3.145,1.55,4.509,5.527,4.509h4.301c4.116,0,5.781-1.017,5.781-4.879V1.225h-2.266V13.712z M83.292,13.735
	c0,1.619-0.555,2.567-3.631,2.567h-7.862c-3.076,0-3.631-0.948-3.631-2.567V1.225h-2.266v12.533c0,3.4,1.711,4.394,5.966,4.394
	h7.724c4.255,0,5.966-0.994,5.966-4.394V1.225h-2.266V13.735z M102.528,1.225H89.139v16.742h2.266v-6.614h11.054
	c2.058,0,3.33,0.324,3.33,2.937v3.677h2.127v-4.278c0-1.526-0.555-2.729-2.867-3.145v-0.047c1.734-0.162,3.076-0.809,3.076-3.168
	V5.965C108.124,2.82,107.361,1.225,102.528,1.225z M105.858,7.075c0,1.758-1.064,2.428-3.585,2.428H91.405V3.075h10.314
	c3.33,0,4.139,0.601,4.139,2.474V7.075z M129.218,13.388c0,2.266-0.879,2.913-3.931,2.913h-7.932c-2.174,0-3.931-0.647-3.931-3.561
	v-6.29c0-2.914,1.757-3.561,3.931-3.561h7.863c2.081,0,3.839,0.139,3.839,2.984v0.763h1.989V5.202c0-2.243-1.133-4.162-5.249-4.162
	h-8.672c-4.533,0-5.966,2.035-5.966,6.267v4.578c0,4.232,1.433,6.267,5.966,6.267h8.556c4.694,0,5.666-1.642,5.666-4.671v-1.133
	h-2.127V13.388z M152.161,8.417h-15.123V1.225h-2.266v16.742h2.266v-7.701h15.123v7.701h2.266V1.225h-2.266V8.417z M160.006,10.267
	h13.621v-1.85h-13.621V3.075h14.176v-1.85h-16.442v16.742h16.534v-1.85h-14.268V10.267z M195.894,1.225v14.707L180.563,1.225h-3.376
	v16.742h2.266V3.26l15.332,14.707h3.376V1.225H195.894z"/>
<path fill="#77777A" d="M47.964,25.31h5.706v10.04h1.528V25.31h5.706v-1.247h-12.94V25.31z M64.649,30.159h9.183v-1.247h-9.183
	V25.31h9.557v-1.247H63.121V35.35h11.147v-1.247h-9.619V30.159z M88.56,32.264c0,1.528-0.593,1.964-2.65,1.964h-5.347
	c-1.466,0-2.651-0.437-2.651-2.401v-4.241c0-1.964,1.185-2.401,2.651-2.401h5.301c1.403,0,2.588,0.094,2.588,2.011v0.514h1.341
	v-0.967c0-1.512-0.764-2.806-3.539-2.806h-5.846c-3.056,0-4.022,1.372-4.022,4.225v3.087c0,2.853,0.966,4.225,4.022,4.225h5.768
	c3.165,0,3.82-1.107,3.82-3.149v-0.764H88.56V32.264z M104.277,28.912H94.081v-4.849h-1.528V35.35h1.528v-5.191h10.196v5.191h1.528
	V24.063h-1.528V28.912z M121.093,33.978l-10.336-9.915h-2.276V35.35h1.528v-9.915l10.336,9.915h2.276V24.063h-1.528V33.978z
	 M135.507,23.938h-6.501c-3.056,0-4.022,1.372-4.022,4.225v3.087c0,2.853,0.967,4.225,4.022,4.225h6.501
	c3.056,0,4.023-1.372,4.023-4.225v-3.087C139.53,25.31,138.563,23.938,135.507,23.938z M138.001,31.827
	c0,1.964-1.184,2.401-2.65,2.401h-6.189c-1.465,0-2.651-0.437-2.651-2.401v-4.241c0-1.964,1.185-2.401,2.651-2.401h6.189
	c1.466,0,2.65,0.437,2.65,2.401V31.827z M143.465,24.063h-1.528V35.35h10.289v-1.247h-8.761V24.063z M164.188,23.938h-6.501
	c-3.055,0-4.023,1.372-4.023,4.225v3.087c0,2.853,0.967,4.225,4.023,4.225h6.501c3.056,0,4.023-1.372,4.023-4.225v-3.087
	C168.211,25.31,167.244,23.938,164.188,23.938z M166.682,31.827c0,1.964-1.185,2.401-2.651,2.401h-6.189
	c-1.465,0-2.65-0.437-2.65-2.401v-4.241c0-1.964,1.185-2.401,2.65-2.401h6.189c1.466,0,2.651,0.437,2.651,2.401V31.827z
	 M177.234,31.001h5.784v1.138c0,1.559-0.935,2.089-2.463,2.089h-5.971c-1.465,0-2.65-0.437-2.65-2.401v-4.241
	c0-1.964,1.185-2.401,2.65-2.401h3.96c3.773,0,4.412,0.156,4.412,2.26h1.434v-0.405c0-2.604-2.167-3.103-4.194-3.103h-5.769
	c-3.055,0-4.022,1.372-4.022,4.225v3.087c0,2.853,0.967,4.225,4.022,4.225h6.299c2.822,0,3.82-1.091,3.82-4.163v-1.559h-7.312
	V31.001z M197.942,24.063l-5.176,5.238l-5.176-5.238h-2.058l6.47,6.517v4.771h1.528V30.58l6.47-6.517H197.942z"/>
</svg>
